<?xml version="1.0" encoding="UTF-8" standalone="no"?>
<svg
   viewBox="0 0 96 96"
   fill="#FFF"
   version="1.1"
   id="svg17"
   sodipodi:docname="folder-link.svg"
   inkscape:version="1.1.1 (3bf5ae0d25, 2021-09-20)"
   inkscape:export-filename="/home/ahk/dev/axmsite/mods/files/www/img/folder-link.png"
   inkscape:export-xdpi="96"
   inkscape:export-ydpi="96"
   xmlns:inkscape="http://www.inkscape.org/namespaces/inkscape"
   xmlns:sodipodi="http://sodipodi.sourceforge.net/DTD/sodipodi-0.dtd"
   xmlns="http://www.w3.org/2000/svg"
   xmlns:svg="http://www.w3.org/2000/svg">
  <defs
     id="defs21">
    <marker
       style="overflow:visible;"
       id="marker2421"
       refX="0.0"
       refY="0.0"
       orient="auto"
       inkscape:stockid="Arrow2Mend"
       inkscape:isstock="true">
      <path
         transform="scale(0.6) rotate(180) translate(0,0)"
         d="M 8.7185878,4.0337352 L -2.2072895,0.016013256 L 8.7185884,-4.0017078 C 6.9730900,-1.6296469 6.9831476,1.6157441 8.7185878,4.0337352 z "
         style="stroke:context-stroke;fill-rule:evenodd;fill:context-stroke;stroke-width:0.62500000;stroke-linejoin:round;"
         id="path2419" />
    </marker>
    <marker
       style="overflow:visible;"
       id="Arrow1Mend"
       refX="0.0"
       refY="0.0"
       orient="auto"
       inkscape:stockid="Arrow1Mend"
       inkscape:isstock="true">
      <path
         transform="scale(0.4) rotate(180) translate(10,0)"
         style="fill-rule:evenodd;fill:context-stroke;stroke:context-stroke;stroke-width:1.0pt;"
         d="M 0.0,0.0 L 5.0,-5.0 L -12.5,0.0 L 5.0,5.0 L 0.0,0.0 z "
         id="path882" />
    </marker>
    <marker
       style="overflow:visible;"
       id="Arrow2Mend"
       refX="0.0"
       refY="0.0"
       orient="auto"
       inkscape:stockid="Arrow2Mend"
       inkscape:isstock="true">
      <path
         transform="scale(0.6) rotate(180) translate(0,0)"
         d="M 8.7185878,4.0337352 L -2.2072895,0.016013256 L 8.7185884,-4.0017078 C 6.9730900,-1.6296469 6.9831476,1.6157441 8.7185878,4.0337352 z "
         style="stroke:context-stroke;fill-rule:evenodd;fill:context-stroke;stroke-width:0.62500000;stroke-linejoin:round;"
         id="path900" />
    </marker>
    <marker
       style="overflow:visible;"
       id="Arrow2Lend"
       refX="0.0"
       refY="0.0"
       orient="auto"
       inkscape:stockid="Arrow2Lend"
       inkscape:isstock="true">
      <path
         transform="scale(1.1) rotate(180) translate(1,0)"
         d="M 8.7185878,4.0337352 L -2.2072895,0.016013256 L 8.7185884,-4.0017078 C 6.9730900,-1.6296469 6.9831476,1.6157441 8.7185878,4.0337352 z "
         style="stroke:context-stroke;fill-rule:evenodd;fill:context-stroke;stroke-width:0.62500000;stroke-linejoin:round;"
         id="path894" />
    </marker>
  </defs>
  <sodipodi:namedview
     id="namedview19"
     pagecolor="#ffffff"
     bordercolor="#666666"
     borderopacity="1.0"
     inkscape:pageshadow="2"
     inkscape:pageopacity="0.0"
     inkscape:pagecheckerboard="0"
     showgrid="false"
     inkscape:zoom="4.546875"
     inkscape:cx="75.32646"
     inkscape:cy="70.487972"
     inkscape:window-width="1495"
     inkscape:window-height="1082"
     inkscape:window-x="3914"
     inkscape:window-y="523"
     inkscape:window-maximized="0"
     inkscape:current-layer="svg17" />
  <path
     fill="#FFB900"
     d="M45,24l-4.2426-4.2426C39.6321,18.6321,38.106,18,36.5147,18H9c-1.6569,0-3,1.3431-3,3v56 c0,0.5523,0.4477,1,1,1h82c0.5523,0,1-0.4477,1-1V27c0-1.6569-1.3431-3-3-3H45z"
     id="path2" />
  <path
     fill="#FFD75E"
     d="M45,24l-4.2426,4.2426C39.6321,29.3679,38.106,30,36.5147,30H6v47c0,0.5523,0.4477,1,1,1h82 c0.5523,0,1-0.4477,1-1V27c0-1.6569-1.3431-3-3-3H45z"
     id="path4" />
  <linearGradient
     id="a"
     x1="48"
     x2="48"
     y1="24"
     y2="78"
     gradientUnits="userSpaceOnUse">
    <stop
       offset="0"
       stop-color="#fff"
       stop-opacity="0"
       id="stop6" />
    <stop
       offset="1"
       stop-color="#ffd75e"
       stop-opacity=".3"
       id="stop8" />
  </linearGradient>
  <path
     fill="url(#a)"
     d="M45,24l-4.2426,4.2426C39.6321,29.3679,38.106,30,36.5147,30H6v47c0,0.5523,0.4477,1,1,1h82 c0.5523,0,1-0.4477,1-1V27c0-1.6569-1.3431-3-3-3H45z"
     id="path11" />
  <path
     opacity=".4"
     d="M6,30v1h30.6005c1.8565,0,3.637-0.7375,4.9497-2.0503L46.5,24H45l-4.2426,4.2426 C39.6321,29.3679,38.106,30,36.5147,30H6z"
     id="path13" />
  <path
     fill="#DA7B16"
     d="M89,78H7c-0.5523,0-1-0.4477-1-1l0,0h84l0,0C90,77.5523,89.5523,78,89,78z"
     id="path15" />
  <path
     style="fill:none;stroke:#0000b3;stroke-width:4.6;stroke-linecap:butt;stroke-linejoin:miter;stroke-miterlimit:4;stroke-dasharray:none;stroke-opacity:1;marker-end:url(#marker2421)"
     d="m 24.376074,71.74792 c 0,0 -5.517855,-19.74236 5.942279,-27.752039 11.460135,-8.009679 42.172412,15.652879 42.172412,15.652879"
     id="path871"
     sodipodi:nodetypes="czc"
     inkscape:export-filename="/home/ahk/dev/axmsite/mods/files/www/img/path871.png"
     inkscape:export-xdpi="96"
     inkscape:export-ydpi="96" />
</svg>
